#!OML:ASF E:\id_vita\Project 1\Capture day 1\Session 1\Male1.ASF
:FULLY-SPECIFIED
:DEGREES
1405
root 19.375 2.83403 4.61077 160.564 87.2073 187.325
lowerback 42.6308 -0.57922 -0.173932
upperback 18.7628 2.56472 -0.459985
thorax 0.819968 2.73603 -1.24355
lowerneck -7.77977 13.1876 14.6769
upperneck -3.04681 16.7109 -14.3361
head 2.79318 8.16041 -5.53284
rclavicle 2.37051e-014 -9.0447e-015
rhumerus 66.224 30.8933 8.42404
rradius 63.453
rwrist -12.8862
rhand -13.0237 -315.05
rfingers 7.12502
rthumb 13.0703 15.3792
lclavicle 2.37051e-014 -9.0447e-015
lhumerus 76.4904 -27.1908 -6.39706
lradius 52.3467
lwrist 26.6419
lhand 5.99298 44.7757
lfingers 7.12502
lthumb 31.3166 72.1164
rfemur -107.083 -15.0793 42.9449
rtibia 95.6591
rfoot 0.345157 16.5739
rtoes -19.543
lfemur -101.667 16.3154 -39.0162
ltibia 77.5167
lfoot 34.2733 1.83012
ltoes 37.1464
1406
root 19.375 2.83387 4.6096 163.12 87.2674 189.897
lowerback 42.6588 -0.604647 -0.141565
upperback 18.6984 2.52945 -0.435991
thorax 0.73859 2.71096 -1.22691
lowerneck -7.48794 13.2352 14.8596
upperneck -3.08977 16.7968 -14.5105
head 2.77951 8.20862 -5.61816
rclavicle 6.95746e-015 -2.43014e-014
rhumerus 66.4141 30.9929 8.45867
rradius 63.4715
rwrist -12.8416
rhand -12.8878 -315.069
rfingers 7.12502
rthumb 13.2013 15.3695
lclavicle 6.95746e-015 -2.43014e-014
lhumerus 76.2859 -27.3369 -6.26456
lradius 52.3246
lwrist 26.8356
lhand 6.21457 44.8444
lfingers 7.12502
lthumb 31.5278 72.1439
rfemur -107.036 -15.0542 43.0627
rtibia 95.6231
rfoot 0.408183 16.6408
rtoes -19.6257
lfemur -101.679 16.3276 -38.8422
ltibia 77.532
lfoot 34.2915 1.81807
ltoes 37.0417
1407
root 19.3742 2.83419 4.60856 164.79 87.321 191.579
lowerback 42.6851 -0.61177 -0.150804
upperback 18.6425 2.50288 -0.418336
thorax 0.667137 2.68872 -1.19822
lowerneck -7.3049 13.2954 14.9903
upperneck -3.05481 16.8944 -14.6329
head 2.79827 8.25895 -5.67026
rclavicle 1.55549e-014 -4.47266e-015
rhumerus 66.5806 31.0754 8.48972
rradius 63.4903
rwrist -12.7549
rhand -12.7802 -315.136
rfingers 7.12502
rthumb 13.305 15.3084
lclavicle 1.55549e-014 -4.47266e-015
lhumerus 76.1037 -27.4555 -6.13469
lradius 52.2966
lwrist 27.0389
lhand 6.47481 44.9508
lfingers 7.12502
lthumb 31.7756 72.2015
rfemur -106.979 -14.9981 43.0989
rtibia 95.5841
rfoot 0.436259 16.7054
rtoes -19.6751
lfemur -101.68 16.3449 -38.7146
ltibia 77.54
lfoot 34.3049 1.79825
ltoes 36.9382
1408
root 19.3735 2.83474 4.60752 165.49 87.3654 192.3
lowerback 42.7081 -0.606258 -0.185815
upperback 18.6109 2.48802 -0.409843
thorax 0.624221 2.67411 -1.16868
lowerneck -7.24732 13.3555 15.0571
upperneck -2.97094 16.9835 -14.6984
head 2.83901 8.30155 -5.68832
rclavicle 3.27001e-014 -3.3197e-014
rhumerus 66.6953 31.1276 8.50742
rradius 63.5082
rwrist -12.6481
rhand -12.6458 -315.217
rfingers 7.12502
rthumb 13.4346 15.2365
lclavicle 3.27001e-014 -3.3197e-014
lhumerus 75.9677 -27.5371 -6.02518
lradius 52.2674
lwrist 27.2271
lhand 6.64204 45.0344
lfingers 7.12502
lthumb 31.9349 72.2534
rfemur -106.911 -14.9306 43.0607
rtibia 95.5543
rfoot 0.444585 16.7462
rtoes -19.6359
lfemur -101.662 16.367 -38.6345
ltibia 77.5478
lfoot 34.3155 1.77586
ltoes 36.9174
1409
root 19.3738 2.83528 4.60622 165.028 87.3899 191.869
lowerback 42.7216 -0.594822 -0.244261
upperback 18.6041 2.47735 -0.41562
thorax 0.612014 2.66399 -1.14219
lowerneck -7.25427 13.3993 15.083
upperneck -2.89753 17.0447 -14.728
head 2.87577 8.3294 -5.68993
rclavicle -4.22417e-015 9.74045e-015
rhumerus 66.7606 31.1553 8.50844
rradius 63.5226
rwrist -12.535
rhand -12.4408 -315.268
rfingers 7.12502
rthumb 13.6322 15.1988
lclavicle -4.22417e-015 9.74045e-015
lhumerus 75.8794 -27.5962 -5.94727
lradius 52.2412
lwrist 27.3885
lhand 6.62223 45.0548
lfingers 7.12502
lthumb 31.916 72.2776
rfemur -106.854 -14.8851 42.9715
rtibia 95.5451
rfoot 0.441812 16.7687
rtoes -19.5347
lfemur -101.624 16.3842 -38.6143
ltibia 77.5604
lfoot 34.3138 1.75211
ltoes 36.9357
1410
root 19.3751 2.83555 4.6046 163.615 87.3822 190.49
lowerback 42.7216 -0.587187 -0.318788
upperback 18.6051 2.45763 -0.436453
thorax 0.612505 2.65043 -1.1196
lowerneck -7.23307 13.421 15.1129
upperneck -2.87606 17.0761 -14.7556
head 2.88861 8.34447 -5.69878
rclavicle -5.51627e-015 -2.31087e-014
rhumerus 66.8045 31.1836 8.50487
rradius 63.536
rwrist -12.4154
rhand -12.1948 -315.277
rfingers 7.12502
rthumb 13.8692 15.2056
lclavicle -5.51627e-015 -2.31087e-014
lhumerus 75.822 -27.6583 -5.89743
lradius 52.2171
lwrist 27.5161
lhand 6.48022 45.0264
lfingers 7.12502
lthumb 31.7808 72.2761
rfemur -106.835 -14.8858 42.8663
rtibia 95.5593
rfoot 0.414812 16.7916
rtoes -19.471
lfemur -101.576 16.3816 -38.6539
ltibia 77.5765
lfoot 34.2988 1.72244
ltoes 36.9227
1411
root 19.3769 2.83549 4.60274 161.706 87.3433 188.599
lowerback 42.7089 -0.586378 -0.398393
upperback 18.5971 2.42535 -0.46735
thorax 0.606452 2.63018 -1.1009
lowerneck -7.16156 13.4285 15.1635
upperneck -2.89077 17.0911 -14.7934
head 2.88331 8.35348 -5.71996
rclavicle 1.75427e-014 -1.02871e-014
rhumerus 66.8473 31.2281 8.51527
rradius 63.5549
rwrist -12.2875
rhand -11.983 -315.277
rfingers 7.12502
rthumb 14.0734 15.2196
lclavicle 1.75427e-014 -1.02871e-014
lhumerus 75.7827 -27.7296 -5.8583
lradius 52.1884
lwrist 27.6019
lhand 6.37354 44.9851
lfingers 7.12502
lthumb 31.6792 72.2549
rfemur -106.858 -14.9219 42.7585
rtibia 95.5892
rfoot 0.369077 16.8087
rtoes -19.498
lfemur -101.535 16.353 -38.74
ltibia 77.5917
lfoot 34.28 1.68042
ltoes 36.8619
